<svg width="12" height="17" viewBox="0 0 12 17" fill="none" xmlns="http://www.w3.org/2000/svg">
<path d="M1.15834 16.2117C1.0649 16.2789 0.954723 16.319 0.839943 16.3276C0.725164 16.3362 0.610243 16.3129 0.507852 16.2603C0.405461 16.2077 0.319576 16.1279 0.259668 16.0296C0.199759 15.9313 0.168154 15.8184 0.168336 15.7033V3.20833C0.168336 2.49004 0.453677 1.80116 0.961589 1.29325C1.4695 0.785341 2.15837 0.5 2.87667 0.5H9.12584C9.84384 0.500221 10.5324 0.785546 11.0401 1.29325C11.5478 1.80096 11.8331 2.48949 11.8333 3.2075V15.7042C11.8334 15.8192 11.8016 15.932 11.7417 16.0302C11.6817 16.1283 11.5958 16.208 11.4934 16.2605C11.3911 16.313 11.2762 16.3362 11.1615 16.3276C11.0468 16.3189 10.9367 16.2788 10.8433 16.2117L6.00084 12.7275L1.1575 16.2108L1.15834 16.2117Z" fill="#000A6B"/>
</svg>
