<svg width="20" height="20" viewBox="0 0 20 20" fill="none" xmlns="http://www.w3.org/2000/svg">
<path d="M4.37502 15C3.65673 15 2.96785 14.7147 2.45994 14.2067C1.95203 13.6988 1.66669 13.01 1.66669 12.2917V5.20833C1.66669 4.49004 1.95203 3.80116 2.45994 3.29325C2.96785 2.78534 3.65673 2.5 4.37502 2.5H15.625C15.9807 2.5 16.3329 2.57005 16.6615 2.70616C16.99 2.84227 17.2886 3.04176 17.5401 3.29325C17.7916 3.54474 17.9911 3.84331 18.1272 4.1719C18.2633 4.50049 18.3334 4.85267 18.3334 5.20833V12.2917C18.3334 12.6473 18.2633 12.9995 18.1272 13.3281C17.9911 13.6567 17.7916 13.9553 17.5401 14.2067C17.2886 14.4582 16.99 14.6577 16.6615 14.7938C16.3329 14.9299 15.9807 15 15.625 15H10.8434L6.66669 18.125C6.51192 18.2408 6.32798 18.3113 6.13544 18.3286C5.94291 18.3458 5.74937 18.3091 5.57649 18.2226C5.4036 18.1362 5.2582 18.0033 5.15653 17.8389C5.05487 17.6744 5.00097 17.485 5.00085 17.2917V15H4.37585H4.37502ZM10.4284 13.75H15.625C16.0118 13.75 16.3827 13.5964 16.6562 13.3229C16.9297 13.0494 17.0834 12.6784 17.0834 12.2917V5.20833C17.0834 4.82156 16.9297 4.45063 16.6562 4.17714C16.3827 3.90365 16.0118 3.75 15.625 3.75H4.37502C3.98825 3.75 3.61731 3.90365 3.34382 4.17714C3.07033 4.45063 2.91669 4.82156 2.91669 5.20833V12.2917C2.91669 13.0967 3.57002 13.75 4.37502 13.75H6.24919V16.875L10.4284 13.75Z" fill="#536471"/>
<path d="M17.6238 17.867C17.4714 17.8672 17.3204 17.8372 17.1796 17.7787L17.3716 17.317L16.8038 17.526C16.8037 17.5259 16.8037 17.5259 16.8036 17.5258L1.83573 2.46875L1.83569 2.46871C1.61981 2.25148 1.49906 1.9574 1.50001 1.65115C1.50095 1.3449 1.62352 1.05157 1.84074 0.835689C2.05796 0.619807 2.35204 0.499058 2.65829 0.500006C2.96452 0.500953 3.25783 0.623501 3.47371 0.840692C3.47372 0.840708 3.47374 0.840724 3.47376 0.84074L18.4411 15.8969C18.4412 15.897 18.4413 15.8971 18.4414 15.8971C18.6025 16.0588 18.7121 16.2645 18.7564 16.4884L18.2659 16.5854L18.7564 16.4884C18.8007 16.7124 18.7776 16.9444 18.69 17.1553C18.6024 17.3662 18.4543 17.5463 18.2643 17.673L17.9869 17.257L18.2643 17.673C18.0746 17.7995 17.8518 17.867 17.6238 17.867ZM17.6238 17.867C17.6235 17.867 17.6231 17.867 17.6228 17.867L17.6232 17.367L17.624 17.867C17.624 17.867 17.6239 17.867 17.6238 17.867Z" fill="#536471" stroke="white"/>
</svg>
