<svg width="18" height="17" viewBox="0 0 18 17" fill="none" xmlns="http://www.w3.org/2000/svg">
<path d="M3.37502 13C2.65673 13 1.96785 12.7147 1.45994 12.2067C0.952028 11.6988 0.666687 11.01 0.666687 10.2917V3.20833C0.666687 2.49004 0.952028 1.80116 1.45994 1.29325C1.96785 0.785341 2.65673 0.5 3.37502 0.5H14.625C14.9807 0.5 15.3329 0.570053 15.6615 0.70616C15.99 0.842266 16.2886 1.04176 16.5401 1.29325C16.7916 1.54474 16.9911 1.84331 17.1272 2.1719C17.2633 2.50049 17.3334 2.85267 17.3334 3.20833V10.2917C17.3334 10.6473 17.2633 10.9995 17.1272 11.3281C16.9911 11.6567 16.7916 11.9553 16.5401 12.2067C16.2886 12.4582 15.99 12.6577 15.6615 12.7938C15.3329 12.9299 14.9807 13 14.625 13H9.84335L5.66669 16.125C5.51192 16.2408 5.32798 16.3113 5.13544 16.3286C4.94291 16.3458 4.74937 16.3091 4.57649 16.2226C4.4036 16.1362 4.2582 16.0033 4.15653 15.8389C4.05487 15.6744 4.00097 15.485 4.00085 15.2917V13H3.37585H3.37502ZM9.42835 11.75H14.625C15.0118 11.75 15.3827 11.5964 15.6562 11.3229C15.9297 11.0494 16.0834 10.6784 16.0834 10.2917V3.20833C16.0834 2.82156 15.9297 2.45063 15.6562 2.17714C15.3827 1.90365 15.0118 1.75 14.625 1.75H3.37502C2.98825 1.75 2.61731 1.90365 2.34382 2.17714C2.07033 2.45063 1.91669 2.82156 1.91669 3.20833V10.2917C1.91669 11.0967 2.57002 11.75 3.37502 11.75H5.24919V14.875L9.42835 11.75Z" fill="#536471"/>
</svg>
