<svg width="4" height="16" viewBox="0 0 4 16" fill="none" xmlns="http://www.w3.org/2000/svg">
<path d="M2 3.75C1.77019 3.75 1.54262 3.70474 1.3303 3.61679C1.11798 3.52884 0.925065 3.39994 0.762563 3.23744C0.60006 3.07493 0.471157 2.88202 0.383211 2.6697C0.295265 2.45738 0.25 2.22981 0.25 2C0.25 1.77019 0.295265 1.54262 0.383211 1.3303C0.471157 1.11798 0.60006 0.925066 0.762563 0.762563C0.925065 0.600061 1.11798 0.471156 1.3303 0.383211C1.54262 0.295265 1.77019 0.25 2 0.25C2.46413 0.25 2.90925 0.434375 3.23744 0.762563C3.56563 1.09075 3.75 1.53587 3.75 2C3.75 2.46413 3.56563 2.90925 3.23744 3.23744C2.90925 3.56563 2.46413 3.75 2 3.75ZM2 9.75C1.53587 9.75 1.09075 9.56563 0.762563 9.23744C0.434374 8.90925 0.25 8.46413 0.25 8C0.25 7.53587 0.434374 7.09075 0.762563 6.76256C1.09075 6.43437 1.53587 6.25 2 6.25C2.46413 6.25 2.90925 6.43437 3.23744 6.76256C3.56563 7.09075 3.75 7.53587 3.75 8C3.75 8.46413 3.56563 8.90925 3.23744 9.23744C2.90925 9.56563 2.46413 9.75 2 9.75ZM0.25 14C0.25 14.4641 0.434374 14.9092 0.762563 15.2374C1.09075 15.5656 1.53587 15.75 2 15.75C2.46413 15.75 2.90925 15.5656 3.23744 15.2374C3.56563 14.9092 3.75 14.4641 3.75 14C3.75 13.5359 3.56563 13.0908 3.23744 12.7626C2.90925 12.4344 2.46413 12.25 2 12.25C1.53587 12.25 1.09075 12.4344 0.762563 12.7626C0.434374 13.0908 0.25 13.5359 0.25 14Z" fill="#9CA3AF"/>
</svg>
