<svg width="24" height="24" viewBox="0 0 24 24" fill="none" xmlns="http://www.w3.org/2000/svg">
<path fill-rule="evenodd" clip-rule="evenodd" d="M12 0C18.6274 0 24 5.37258 24 12C24 18.6274 18.6274 24 12 24C5.37258 24 0 18.6274 0 12C0 5.37258 5.37258 0 12 0ZM19.1811 6.46894C19.4383 5.57373 18.5968 4.73229 17.7016 4.98944L17.5793 5.03141L9.09403 8.42553L8.96739 8.48496C8.77149 8.59125 8.60915 8.75001 8.49852 8.94308L8.42553 9.09403L5.03141 17.5793L4.98944 17.7016C4.73229 18.5968 5.57373 19.4383 6.46894 19.1811L6.59125 19.1392L15.0765 15.745L15.2032 15.6856C15.3991 15.5793 15.5614 15.4206 15.672 15.2275L15.745 15.0765L19.1392 6.59125L19.1811 6.46894ZM12 9.6C13.3255 9.6 14.4 10.6745 14.4 12C14.4 13.3255 13.3255 14.4 12 14.4C10.6745 14.4 9.6 13.3255 9.6 12C9.6 10.6745 10.6745 9.6 12 9.6Z" fill="white"/>
</svg>
