<svg width="20" height="20" viewBox="0 0 20 20" fill="none" xmlns="http://www.w3.org/2000/svg">
<g clip-path="url(#clip0_608_327)">
<path d="M15.6213 17.345C15.5349 17.3452 15.4494 17.3282 15.3697 17.295C15.29 17.2619 15.2177 17.2132 15.1569 17.1519L0.188442 2.09427C0.0660381 1.97111 -0.00242607 1.80437 -0.00188895 1.63072C-0.00135184 1.45708 0.0681425 1.29077 0.191306 1.16836C0.31447 1.04596 0.481213 0.977493 0.654856 0.97803C0.828498 0.978568 0.994815 1.04806 1.11722 1.17123L16.0853 16.2281C16.1767 16.3197 16.2389 16.4364 16.264 16.5634C16.2891 16.6904 16.276 16.822 16.2264 16.9415C16.1767 17.0611 16.0927 17.1632 15.985 17.235C15.8773 17.3069 15.7507 17.3451 15.6213 17.345Z" fill="#536471"/>
<path d="M13.456 2.28809C11.4884 2.28809 10.1828 3.49713 9.49054 4.37477C8.79989 3.49591 7.49264 2.28809 5.52503 2.28809C5.09541 2.28779 4.66807 2.35051 4.25665 2.47425L5.39901 3.59738C6.30978 3.59738 7.27334 3.96561 8.01513 4.68859C8.36703 5.03136 8.66685 5.42381 8.90504 5.85345C8.9595 5.96195 9.04306 6.05318 9.14638 6.11693C9.2497 6.18068 9.36872 6.21444 9.49013 6.21444C9.61153 6.21444 9.73055 6.18068 9.83387 6.11693C9.9372 6.05318 10.0208 5.96195 10.0752 5.85345C10.3135 5.42318 10.6136 5.03017 10.9659 4.68695C11.7077 3.96561 12.5453 3.59738 13.456 3.59738C15.2215 3.59738 16.6728 5.08383 16.6912 6.91151C16.7133 9.10826 15.7604 10.9846 14.3435 12.62L15.2694 13.5517C15.3922 13.4109 15.5026 13.28 15.6025 13.1589C17.2391 11.1643 18.0226 9.11644 18.0005 6.89883C17.9751 4.35513 15.9363 2.28809 13.456 2.28809Z" fill="#536471"/>
<path d="M9.49051 16.6905C5.90551 14.2564 2.2485 11.1915 2.28942 6.91173C2.29203 6.6583 2.32277 6.40595 2.38107 6.1593L1.34837 5.11719C1.11127 5.68079 0.986195 6.28518 0.980129 6.89659C0.958035 9.11502 1.74238 11.1628 3.37817 13.1566C4.14615 14.0924 5.5385 15.589 8.75403 17.7719C8.97088 17.9205 9.22762 18 9.49051 18C9.7534 18 10.0101 17.9205 10.227 17.7719C11.0596 17.2068 11.7695 16.6876 12.3783 16.2126L11.4512 15.2793C10.81 15.774 10.1488 16.2425 9.49051 16.6905Z" fill="#536471"/>
</g>
<defs>
<clipPath id="clip0_608_327">
<rect width="20" height="20" fill="white"/>
</clipPath>
</defs>
</svg>
