<svg width="26" height="26" viewBox="0 0 26 26" fill="none" xmlns="http://www.w3.org/2000/svg">
<path d="M24.2655 12.7681C24.2655 6.34347 19.0573 1.13531 12.6327 1.13531C6.20816 1.13531 1 6.34347 1 12.7681C1 19.1926 6.20816 24.4008 12.6327 24.4008" stroke="#9CA3AF" stroke-width="2" stroke-linecap="round" stroke-linejoin="round"/>
<path d="M13.796 1.19269C13.796 1.19269 17.2858 5.78835 17.2858 12.7679" stroke="#9CA3AF" stroke-width="2" stroke-linecap="round" stroke-linejoin="round"/>
<path d="M11.4694 24.3433C11.4694 24.3433 7.97961 19.7476 7.97961 12.7679C7.97961 5.78834 11.4694 1.19269 11.4694 1.19269" stroke="#9CA3AF" stroke-width="2" stroke-linecap="round" stroke-linejoin="round"/>
<path d="M1.73242 16.8395H12.6327" stroke="#9CA3AF" stroke-width="2" stroke-linecap="round" stroke-linejoin="round"/>
<path d="M1.73242 8.69659H23.5331" stroke="#9CA3AF" stroke-width="2" stroke-linecap="round" stroke-linejoin="round"/>
<path fill-rule="evenodd" clip-rule="evenodd" d="M24.1247 19.6516C24.6991 20.0049 24.6638 20.8649 24.0721 20.932L21.0865 21.2704L19.7473 23.9603C19.482 24.4933 18.6617 24.2324 18.5261 23.5717L17.0658 16.4571C16.9513 15.8988 17.4531 15.5473 17.9385 15.8461L24.1247 19.6516Z" stroke="#9CA3AF" stroke-width="2"/>
</svg>
