<svg width="19" height="19" viewBox="0 0 19 19" fill="none" xmlns="http://www.w3.org/2000/svg">
<path d="M0.808508 0.0577387L18.0248 8.54115C18.3026 8.67801 18.4168 9.01411 18.2799 9.29185C18.2253 9.40266 18.1357 9.49233 18.0248 9.54694L0.808862 18.0302C0.531123 18.167 0.195026 18.0528 0.058169 17.7751C-0.00167469 17.6536 -0.015547 17.5146 0.0191144 17.3838L1.72483 10.9425C1.78124 10.7295 1.95721 10.5692 2.17458 10.533L9.8899 9.24658C9.98442 9.23082 10.0626 9.16842 10.1001 9.0836L10.1203 9.01616C10.1421 8.88527 10.0695 8.76046 9.95209 8.71144L9.8899 8.69357L2.13101 7.40043C1.91357 7.36418 1.73754 7.20387 1.68118 6.99075L0.0187257 0.704026C-0.0604694 0.404698 0.117983 0.0978445 0.417311 0.0186493C0.548153 -0.0159686 0.687102 -0.00208442 0.808508 0.0577387Z" fill="white"/>
</svg>
