<svg width="35" height="25" viewBox="0 0 35 25" fill="none" xmlns="http://www.w3.org/2000/svg">
<path d="M32.3459 5.05885C32.1734 4.36982 31.8222 3.73851 31.3276 3.22868C30.8331 2.71884 30.2128 2.34854 29.5293 2.15518C27.0321 1.54541 17.0435 1.54541 17.0435 1.54541C17.0435 1.54541 7.0549 1.54541 4.55774 2.21325C3.87429 2.40662 3.25396 2.77692 2.75942 3.28675C2.26488 3.79658 1.91365 4.4279 1.74118 5.11692C1.28417 7.65118 1.06062 10.222 1.07334 12.7971C1.05705 15.3916 1.28061 17.9821 1.74118 20.5354C1.93132 21.203 2.29042 21.8103 2.78381 22.2986C3.2772 22.7869 3.88819 23.1397 4.55774 23.3229C7.0549 23.9908 17.0435 23.9908 17.0435 23.9908C17.0435 23.9908 27.0321 23.9908 29.5293 23.3229C30.2128 23.1296 30.8331 22.7593 31.3276 22.2494C31.8222 21.7396 32.1734 21.1083 32.3459 20.4193C32.7994 17.9041 33.0229 15.3528 33.0137 12.7971C33.03 10.2026 32.8064 7.61219 32.3459 5.05885V5.05885Z" stroke="#9CA3AF" stroke-width="2" stroke-linecap="round" stroke-linejoin="round"/>
<path d="M13.777 17.5446L22.125 12.7971L13.777 8.04962V17.5446Z" stroke="#9CA3AF" stroke-width="2" stroke-linecap="round" stroke-linejoin="round"/>
</svg>
