<svg width="27" height="25" viewBox="0 0 27 25" fill="none" xmlns="http://www.w3.org/2000/svg">
<path d="M22.666 12.2537H25.5021" stroke="#9CA3AF" stroke-width="2" stroke-linecap="round"/>
<path d="M1 12.2537H16.6211" stroke="#9CA3AF" stroke-width="2" stroke-linecap="round"/>
<path d="M10.5007 4.17862H25.5022" stroke="#9CA3AF" stroke-width="2" stroke-linecap="round"/>
<path d="M1 4.17862H4.46576" stroke="#9CA3AF" stroke-width="2" stroke-linecap="round"/>
<path d="M14.7623 20.3287H25.5022" stroke="#9CA3AF" stroke-width="2" stroke-linecap="round"/>
<path d="M1 20.3287H8.71737" stroke="#9CA3AF" stroke-width="2" stroke-linecap="round"/>
<path d="M7.48316 7.04494C9.15242 7.04494 10.5056 5.69173 10.5056 4.02247C10.5056 2.35321 9.15242 1 7.48316 1C5.8139 1 4.46069 2.35321 4.46069 4.02247C4.46069 5.69173 5.8139 7.04494 7.48316 7.04494Z" stroke="#9CA3AF" stroke-width="2" stroke-linecap="round"/>
<path d="M19.6436 15.2761C21.3128 15.2761 22.666 13.9229 22.666 12.2537C22.666 10.5844 21.3128 9.2312 19.6436 9.2312C17.9743 9.2312 16.6211 10.5844 16.6211 12.2537C16.6211 13.9229 17.9743 15.2761 19.6436 15.2761Z" stroke="#9CA3AF" stroke-width="2" stroke-linecap="round"/>
<path d="M11.7399 23.3512C13.4091 23.3512 14.7623 21.9979 14.7623 20.3287C14.7623 18.6594 13.4091 17.3062 11.7399 17.3062C10.0706 17.3062 8.71741 18.6594 8.71741 20.3287C8.71741 21.9979 10.0706 23.3512 11.7399 23.3512Z" stroke="#9CA3AF" stroke-width="2" stroke-linecap="round"/>
</svg>
