<svg width="25" height="24" viewBox="0 0 25 24" fill="none" xmlns="http://www.w3.org/2000/svg">
<path fill-rule="evenodd" clip-rule="evenodd" d="M7.45262 0.0706085C8.70789 0.0130733 9.108 0 12.3043 0C15.5013 0 15.9008 0.0137259 17.1554 0.0706085C18.4087 0.127491 19.2645 0.326896 20.0131 0.617825C20.7982 0.913428 21.5094 1.37659 22.0973 1.97508C22.6959 2.56288 23.1591 3.27416 23.4546 4.05934C23.7455 4.80792 23.9443 5.66372 24.0018 6.91636C24.0594 8.17163 24.0724 8.57175 24.0724 11.7681C24.0724 14.9644 24.0587 15.3645 24.0018 16.6199C23.9449 17.8724 23.7455 18.7283 23.4546 19.4768C23.1539 20.2503 22.7511 20.9073 22.0973 21.5611C21.5096 22.1596 20.7982 22.6229 20.0131 22.9184C19.2645 23.2092 18.4087 23.408 17.1561 23.4656C15.9008 23.5231 15.5007 23.5362 12.3043 23.5362C9.108 23.5362 8.70789 23.5225 7.45262 23.4656C6.19998 23.4087 5.34417 23.2092 4.59559 22.9184C3.82216 22.6176 3.16512 22.2148 2.51134 21.5611C1.91274 20.9733 1.44954 20.262 1.15408 19.4768C0.863151 18.7283 0.664399 17.8724 0.606863 16.6199C0.549328 15.3645 0.536255 14.9651 0.536255 11.7681C0.536255 8.57109 0.549981 8.17163 0.606863 6.91703C0.663746 5.66372 0.863151 4.80792 1.15408 4.05934C1.44968 3.27421 1.91284 2.56296 2.51134 1.97508C3.09912 1.37648 3.8104 0.913289 4.59559 0.617825C5.34417 0.326896 6.19998 0.128144 7.45262 0.0706085ZM17.0599 2.18886C15.819 2.13263 15.4464 2.12021 12.3043 2.12021C9.16226 2.12021 8.78961 2.13263 7.54873 2.18886C6.40134 2.24117 5.77829 2.43272 5.36378 2.59421C4.81461 2.80734 4.42233 3.06231 4.01045 3.4742C3.59923 3.88608 3.3436 4.27835 3.13047 4.82753C2.96898 5.24203 2.77742 5.86509 2.72512 7.01248C2.66889 8.25336 2.65647 8.62601 2.65647 11.7681C2.65647 14.9102 2.66889 15.2828 2.72512 16.5237C2.77742 17.6711 2.96898 18.2941 3.13047 18.7087C3.31899 19.2199 3.6197 19.6822 4.01045 20.062C4.39013 20.4527 4.85259 20.7535 5.36378 20.942C5.77829 21.1035 6.40134 21.295 7.54873 21.3473C8.78961 21.4036 9.16161 21.416 12.3043 21.416C15.4471 21.416 15.819 21.4036 17.0599 21.3473C18.2073 21.295 18.8304 21.1035 19.2449 20.942C19.7941 20.7288 20.1864 20.4739 20.5983 20.062C20.989 19.6823 21.2897 19.2199 21.4782 18.7087C21.6398 18.2941 21.8313 17.6711 21.8836 16.5237C21.9398 15.2828 21.9523 14.9102 21.9523 11.7681C21.9523 8.62601 21.9398 8.25336 21.8836 7.01248C21.8313 5.86509 21.6398 5.24203 21.4782 4.82753C21.2651 4.27835 21.0102 3.88608 20.5983 3.4742C20.1864 3.06298 19.7941 2.80734 19.2449 2.59421C18.8304 2.43272 18.2073 2.24117 17.0599 2.18886ZM10.8018 15.3958C11.2782 15.5931 11.7887 15.6947 12.3043 15.6947C13.3458 15.6947 14.3445 15.281 15.0809 14.5446C15.8173 13.8082 16.231 12.8095 16.231 11.7681C16.231 10.7267 15.8173 9.72793 15.0809 8.99155C14.3445 8.25517 13.3458 7.84146 12.3043 7.84146C11.7887 7.84146 11.2782 7.94303 10.8018 8.14036C10.3253 8.33769 9.89245 8.62692 9.52783 8.99155C9.16322 9.35617 8.87398 9.78902 8.67665 10.2654C8.47932 10.7418 8.37776 11.2524 8.37776 11.7681C8.37776 12.2837 8.47932 12.7944 8.67665 13.2708C8.87398 13.7472 9.16322 14.18 9.52783 14.5446C9.89245 14.9092 10.3253 15.1985 10.8018 15.3958ZM8.02723 7.49093C9.1616 6.35657 10.7001 5.71928 12.3043 5.71928C13.9087 5.71928 15.4472 6.35657 16.5815 7.49093C17.7158 8.6253 18.3531 10.1639 18.3531 11.7681C18.3531 13.3723 17.7158 14.9108 16.5815 16.0453C15.4472 17.1796 13.9087 17.8169 12.3043 17.8169C10.7001 17.8169 9.1616 17.1796 8.02723 16.0453C6.89286 14.9108 6.25558 13.3723 6.25558 11.7681C6.25558 10.1639 6.89286 8.6253 8.02723 7.49093ZM19.6944 6.62049C19.9625 6.35234 20.1131 5.98866 20.1131 5.60945C20.1131 5.23023 19.9625 4.86655 19.6944 4.59841C19.4262 4.33027 19.0625 4.17963 18.6833 4.17963C18.3041 4.17963 17.9404 4.33027 17.6723 4.59841C17.4041 4.86655 17.2535 5.23023 17.2535 5.60945C17.2535 5.98866 17.4041 6.35234 17.6723 6.62049C17.9404 6.88863 18.3041 7.03928 18.6833 7.03928C19.0625 7.03928 19.4262 6.88863 19.6944 6.62049Z" fill="#9CA3AF"/>
</svg>
