<svg width="18" height="15" viewBox="0 0 18 15" fill="none" xmlns="http://www.w3.org/2000/svg">
<path d="M9.68336 1.64999L9.00003 2.33499L8.31336 1.64832C7.47329 0.808358 6.33395 0.336516 5.14599 0.336594C3.95802 0.336672 2.81874 0.808664 1.97878 1.64874C1.13882 2.48881 0.666975 3.62815 0.667053 4.81611C0.667131 6.00408 1.13912 7.14336 1.9792 7.98332L8.55836 14.5625C8.67555 14.6795 8.8344 14.7453 9.00003 14.7453C9.16566 14.7453 9.32451 14.6795 9.4417 14.5625L16.0267 7.98165C16.8658 7.14151 17.337 6.00262 17.3369 4.81523C17.3367 3.62784 16.8652 2.48908 16.0259 1.64915C15.6095 1.23252 15.1151 0.902015 14.571 0.67652C14.0269 0.451025 13.4436 0.334961 12.8546 0.334961C12.2656 0.334961 11.6824 0.451025 11.1382 0.67652C10.5941 0.902015 10.0997 1.23336 9.68336 1.64999Z" fill="#790D0D"/>
</svg>
