<svg width="18" height="15" viewBox="0 0 18 15" fill="none" xmlns="http://www.w3.org/2000/svg">
<path d="M9.68333 1.64999L9 2.33499L8.31333 1.64832C7.47326 0.808358 6.33392 0.336516 5.14595 0.336594C3.95799 0.336672 2.81871 0.808664 1.97875 1.64874C1.13879 2.48881 0.666945 3.62815 0.667023 4.81611C0.667101 6.00408 1.13909 7.14336 1.97917 7.98332L8.55833 14.5625C8.67552 14.6795 8.83437 14.7453 9 14.7453C9.16562 14.7453 9.32448 14.6795 9.44167 14.5625L16.0267 7.98165C16.8657 7.14151 17.337 6.00262 17.3368 4.81523C17.3367 3.62784 16.8651 2.48908 16.0258 1.64915C15.6095 1.23252 15.1151 0.902015 14.571 0.67652C14.0268 0.451025 13.4436 0.334961 12.8546 0.334961C12.2656 0.334961 11.6823 0.451025 11.1382 0.67652C10.5941 0.902015 10.0997 1.23252 9.68333 1.64915V1.64999ZM15.14 7.09999L9 13.2375L2.8625 7.09999C2.56003 6.80071 2.31968 6.44461 2.15528 6.05215C1.99088 5.65969 1.90566 5.2386 1.90453 4.8131C1.9034 4.38759 1.98637 3.96606 2.14868 3.57273C2.31099 3.17939 2.54944 2.82202 2.85032 2.52114C3.1512 2.22026 3.50857 1.98181 3.90191 1.8195C4.29524 1.65719 4.71677 1.57422 5.14227 1.57535C5.56778 1.57648 5.98886 1.6617 6.38133 1.8261C6.77379 1.9905 7.12989 2.23085 7.42917 2.53332L8.56083 3.66415C8.61971 3.7231 8.68978 3.76968 8.76692 3.80115C8.84406 3.83263 8.92671 3.84836 9.01002 3.84743C9.09333 3.8465 9.17561 3.82892 9.25203 3.79573C9.32845 3.76254 9.39745 3.7144 9.455 3.65415L10.5667 2.53332C11.1794 1.96297 11.9895 1.6525 12.8265 1.66722C13.6635 1.68195 14.4622 2.02073 15.0545 2.61229C15.6468 3.20384 15.9866 4.00207 16.0024 4.83905C16.0182 5.67602 15.7087 6.4865 15.1392 7.09999H15.14Z" fill="#536471"/>
</svg>
