<svg width="16" height="18" viewBox="0 0 16 18" fill="none" xmlns="http://www.w3.org/2000/svg">
<path fill-rule="evenodd" clip-rule="evenodd" d="M12.6022 5.16334V6.44113C14.0375 6.88914 15.0833 8.18845 15.0833 9.74034V13.8544C15.0833 15.7757 13.4905 17.3333 11.5268 17.3333H4.47396C2.50942 17.3333 0.916626 15.7757 0.916626 13.8544V9.74034C0.916626 8.18845 1.96325 6.88914 3.3977 6.44113V5.16334C3.40617 2.67899 5.46385 0.666672 7.98726 0.666672C10.5445 0.666672 12.6022 2.67899 12.6022 5.16334ZM8.00419 2.11588C9.72316 2.11588 11.1204 3.48227 11.1204 5.16334V6.26143H4.87957V5.14678C4.88803 3.47399 6.28522 2.11588 8.00419 2.11588ZM8.74089 12.7125C8.74089 13.1182 8.41065 13.4412 7.99573 13.4412C7.58927 13.4412 7.25902 13.1182 7.25902 12.7125V10.874C7.25902 10.4765 7.58927 10.1536 7.99573 10.1536C8.41065 10.1536 8.74089 10.4765 8.74089 10.874V12.7125Z" fill="#E5E7EB"/>
</svg>
