<svg width="194" height="255" viewBox="0 0 194 255" fill="none" xmlns="http://www.w3.org/2000/svg">
<g filter="url(#filter0_d_178_668)">
<rect x="24" y="10" width="146" height="146" rx="35" fill="white"/>
<path d="M49.9998 70.5001L73.4998 47L96.9999 70.5001L120.5 47L144 70.5001" stroke="black" stroke-width="20"/>
<path d="M49.9998 70.5001L73.4998 47L96.9999 70.5001L120.5 47L144 70.5001" stroke="url(#paint0_linear_178_668)" stroke-width="20"/>
<path d="M73.9998 95.3335L97.4998 118.834L121 95.3335" stroke="black" stroke-width="20"/>
<path d="M73.9998 95.3335L97.4998 118.834L121 95.3335" stroke="url(#paint1_linear_178_668)" stroke-width="20"/>
<path d="M47.186 216V209.79C47.186 207.36 47.156 205.5 46.886 203.85L51.566 216H56.006L60.716 203.85C60.476 205.5 60.476 206.55 60.476 211.35V216H65.186V193.8H60.416L53.786 210.36L47.186 193.8H42.476V216H47.186ZM73.77 216.39C76.02 216.39 78 215.4 78.48 214.02L78.78 216H82.86V207.24C82.86 202.95 80.4 200.52 76.05 200.52C71.76 200.52 68.97 202.74 68.97 206.13H72.81C72.81 204.78 73.86 204.03 75.81 204.03C77.46 204.03 78.36 204.81 78.36 206.28V206.52L74.16 206.85C70.56 207.12 68.61 208.83 68.61 211.59C68.61 214.53 70.59 216.39 73.77 216.39ZM75.39 212.97C73.98 212.97 73.32 212.46 73.32 211.38C73.32 210.42 74.04 209.97 76.05 209.79L78.39 209.58V210.39C78.39 212.1 77.16 212.97 75.39 212.97ZM85.0936 211.26C85.0936 214.29 87.5836 216.39 91.5436 216.39C95.4436 216.39 98.1736 214.44 98.1736 211.23C98.1736 208.83 96.8236 207.69 94.3636 207.15L91.5736 206.55C90.5236 206.31 89.9536 205.92 89.9536 205.23C89.9536 204.42 90.6136 203.88 91.6636 203.88C92.7736 203.88 93.4036 204.57 93.4036 205.59H97.7836C97.7836 202.56 95.3536 200.52 91.8736 200.52C88.2736 200.52 85.6036 202.32 85.6036 205.44C85.6036 208.08 86.9536 209.28 89.7136 209.88L92.4736 210.48C93.5836 210.72 93.8236 211.2 93.8236 211.65C93.8236 212.43 93.1636 212.94 91.7236 212.94C90.3136 212.94 89.5336 212.31 89.4736 211.26H85.0936ZM99.5077 211.26C99.5077 214.29 101.998 216.39 105.958 216.39C109.858 216.39 112.588 214.44 112.588 211.23C112.588 208.83 111.238 207.69 108.778 207.15L105.988 206.55C104.938 206.31 104.368 205.92 104.368 205.23C104.368 204.42 105.028 203.88 106.078 203.88C107.188 203.88 107.818 204.57 107.818 205.59H112.198C112.198 202.56 109.768 200.52 106.288 200.52C102.688 200.52 100.018 202.32 100.018 205.44C100.018 208.08 101.368 209.28 104.128 209.88L106.888 210.48C107.998 210.72 108.238 211.2 108.238 211.65C108.238 212.43 107.578 212.94 106.138 212.94C104.728 212.94 103.948 212.31 103.888 211.26H99.5077ZM117.282 198.66C118.722 198.66 119.892 197.49 119.892 196.02C119.892 194.55 118.722 193.41 117.282 193.41C115.812 193.41 114.642 194.55 114.642 196.02C114.642 197.49 115.812 198.66 117.282 198.66ZM115.002 216H119.622V201H115.002V216ZM127.348 216H131.908L138.178 201H133.378L131.368 206.25C130.618 208.2 129.958 210.15 129.778 211.02C129.658 210.33 129.058 208.44 128.308 206.25L126.478 201H121.498L127.348 216ZM146.278 216.39C150.388 216.39 153.358 214.26 153.898 210.93H149.668C149.338 212.01 148.108 212.64 146.368 212.64C144.328 212.64 143.218 211.71 142.948 209.73L153.838 209.67V208.5C153.838 203.61 150.898 200.52 146.188 200.52C141.658 200.52 138.508 203.79 138.508 208.47C138.508 213.09 141.748 216.39 146.278 216.39ZM146.218 204.27C148.078 204.27 149.248 205.29 149.248 206.88H143.008C143.368 205.08 144.388 204.27 146.218 204.27Z" fill="white"/>
</g>
<defs>
<filter id="filter0_d_178_668" x="0" y="0" width="194" height="254.39" filterUnits="userSpaceOnUse" color-interpolation-filters="sRGB">
<feFlood flood-opacity="0" result="BackgroundImageFix"/>
<feColorMatrix in="SourceAlpha" type="matrix" values="0 0 0 0 0 0 0 0 0 0 0 0 0 0 0 0 0 0 127 0" result="hardAlpha"/>
<feOffset dy="14"/>
<feGaussianBlur stdDeviation="12"/>
<feComposite in2="hardAlpha" operator="out"/>
<feColorMatrix type="matrix" values="0 0 0 0 0 0 0 0 0 0 0 0 0 0 0 0 0 0 0.25 0"/>
<feBlend mode="normal" in2="BackgroundImageFix" result="effect1_dropShadow_178_668"/>
<feBlend mode="normal" in="SourceGraphic" in2="effect1_dropShadow_178_668" result="shape"/>
</filter>
<linearGradient id="paint0_linear_178_668" x1="56.0046" y1="67.6511" x2="131.24" y2="70.3275" gradientUnits="userSpaceOnUse">
<stop stop-color="#000A6B"/>
<stop offset="1" stop-color="#790D0D"/>
</linearGradient>
<linearGradient id="paint1_linear_178_668" x1="77.0022" y1="115.985" x2="114.656" y2="116.654" gradientUnits="userSpaceOnUse">
<stop stop-color="#000A6B"/>
<stop offset="1" stop-color="#790D0D"/>
</linearGradient>
</defs>
</svg>
