<svg width="22" height="26" viewBox="0 0 22 26" fill="none" xmlns="http://www.w3.org/2000/svg">
<path fill-rule="evenodd" clip-rule="evenodd" d="M19.3838 8.99541C19.3838 10.5653 19.7988 11.4907 20.7119 12.557C21.4039 13.3426 21.625 14.351 21.625 15.445C21.625 16.5378 21.266 17.5752 20.5467 18.4174C19.605 19.4271 18.2769 20.0717 16.9216 20.1837C14.9574 20.3512 12.9921 20.4922 11.0006 20.4922C9.00793 20.4922 7.04381 20.4078 5.07969 20.1837C3.72307 20.0717 2.39502 19.4271 1.45458 18.4174C0.735275 17.5752 0.375 16.5378 0.375 15.445C0.375 14.351 0.597377 13.3426 1.28811 12.557C2.22979 11.4907 2.6174 10.5653 2.6174 8.99541V8.46288C2.6174 6.36042 3.14166 4.98565 4.22124 3.63983C5.82633 1.67712 8.39919 0.5 10.9447 0.5H11.0565C13.6567 0.5 16.3128 1.73377 17.8906 3.78083C18.9142 5.09895 19.3838 6.41582 19.3838 8.46288V8.99541ZM7.34209 23.076C7.34209 22.4466 7.91977 22.1583 8.45397 22.0349C9.07887 21.9027 12.8866 21.9027 13.5115 22.0349C14.0457 22.1583 14.6234 22.4466 14.6234 23.076C14.5923 23.6753 14.2407 24.2066 13.755 24.544C13.1251 25.035 12.3859 25.3459 11.6132 25.458C11.1859 25.5134 10.7659 25.5146 10.3535 25.458C9.57952 25.3459 8.84034 25.035 8.21172 24.5427C7.72473 24.2066 7.37315 23.6753 7.34209 23.076Z" fill="#9CA3AF"/>
</svg>
