<svg width="20" height="20" viewBox="0 0 20 20" fill="none" xmlns="http://www.w3.org/2000/svg">
<mask id="mask0_145_673" style="mask-type:luminance" maskUnits="userSpaceOnUse" x="0" y="0" width="20" height="20">
<path fill-rule="evenodd" clip-rule="evenodd" d="M0 0H19.2849V19.93H0V0Z" fill="white"/>
</mask>
<g mask="url(#mask0_145_673)">
<path fill-rule="evenodd" clip-rule="evenodd" d="M5.20225 14.8506C5.43125 14.8506 5.66025 14.8785 5.88425 14.9362C6.56025 15.1113 7.14725 15.546 7.49525 16.1299C7.72125 16.4963 7.84625 16.9243 7.85025 17.361C7.85025 17.9862 8.37225 18.4873 9.01425 18.4873H10.2673C10.9063 18.4873 11.4283 17.9891 11.4313 17.3745C11.4273 16.6954 11.7033 16.05 12.2083 15.5643C12.7063 15.0853 13.4023 14.7977 14.0983 14.817C14.5543 14.8275 14.9933 14.9459 15.3803 15.1575C15.9373 15.4643 16.6483 15.2815 16.9703 14.7525L17.6343 13.6878C17.7823 13.4425 17.8253 13.1347 17.7463 12.851C17.6683 12.5673 17.4723 12.321 17.2083 12.1758C16.5903 11.8334 16.1493 11.2813 15.9663 10.6196C15.7853 9.97033 15.8843 9.26146 16.2373 8.67763C16.4673 8.2929 16.8043 7.96877 17.2083 7.74562C17.7503 7.44072 17.9403 6.75879 17.6253 6.22786C17.6123 6.2067 17.6003 6.18458 17.5903 6.16149L17.0043 5.18428C16.6853 4.65047 15.9753 4.46676 15.4183 4.77166C14.8163 5.11407 14.1003 5.21217 13.4123 5.03808C12.7253 4.86688 12.1493 4.44848 11.7903 3.85792C11.5603 3.48858 11.4353 3.05864 11.4313 2.62101C11.4403 2.29207 11.3203 1.99679 11.1023 1.78038C10.8853 1.56493 10.5803 1.44278 10.2673 1.44278H9.01425C8.70425 1.44278 8.41425 1.55916 8.19525 1.76883C7.97725 1.97947 7.85825 2.25937 7.86025 2.55753C7.83925 3.96372 6.64425 5.09579 5.19725 5.09579C4.73325 5.09098 4.28625 4.97075 3.89825 4.74761C3.35325 4.44944 2.64125 4.63315 2.32225 5.16697L1.64525 6.23748C1.33525 6.75494 1.52525 7.4388 2.07725 7.74755C2.89625 8.20345 3.40725 9.05371 3.40725 9.96552C3.40725 10.8773 2.89625 11.7266 2.07525 12.1835C1.52625 12.4893 1.33625 13.1694 1.65425 13.6984L2.28525 14.7448C2.44125 15.0151 2.69625 15.2104 2.99125 15.2902C3.28525 15.3691 3.60925 15.3354 3.87925 15.1911C4.27625 14.967 4.73825 14.8506 5.20225 14.8506ZM10.2672 19.93H9.0142C7.5452 19.93 6.3502 18.7816 6.3502 17.3687C6.3482 17.1946 6.2962 17.0137 6.1992 16.857C6.0422 16.5934 5.7882 16.4049 5.4952 16.3299C5.2042 16.2549 4.8852 16.2962 4.6232 16.4424C3.9952 16.7791 3.2562 16.8608 2.5802 16.6781C1.9052 16.4944 1.3222 16.0481 0.980198 15.4565L0.355198 14.4207C-0.375802 13.2011 0.0591977 11.6381 1.3252 10.934C1.6842 10.7349 1.9072 10.3637 1.9072 9.96548C1.9072 9.56728 1.6842 9.19506 1.3252 8.99596C0.0581977 8.28806 -0.375802 6.72124 0.354198 5.50165L1.0322 4.43113C1.7532 3.225 3.3832 2.79988 4.6542 3.50201C4.8272 3.60108 5.0152 3.65109 5.2062 3.65302C5.8292 3.65302 6.3502 3.15864 6.3602 2.55076C6.3562 1.88037 6.6312 1.23691 7.1322 0.751186C7.6352 0.266426 8.3032 0 9.0142 0H10.2672C10.9832 0 11.6792 0.282777 12.1782 0.77427C12.6762 1.26865 12.9512 1.94674 12.9302 2.63444C12.9322 2.7893 12.9852 2.9682 13.0812 3.12497C13.2402 3.38467 13.4912 3.56741 13.7892 3.64244C14.0872 3.71361 14.3992 3.67514 14.6642 3.52413C15.9442 2.82104 17.5732 3.24232 18.3042 4.46383L18.9272 5.50165C18.9432 5.52954 18.9572 5.55647 18.9692 5.58436C19.6312 6.78761 19.1892 8.30248 17.9592 8.99404C17.7802 9.0931 17.6352 9.23161 17.5352 9.39897C17.3802 9.6577 17.3372 9.96548 17.4152 10.2483C17.4952 10.5368 17.6862 10.7763 17.9552 10.9244C18.5622 11.2601 19.0152 11.8257 19.1962 12.4787C19.3772 13.1309 19.2782 13.8388 18.9252 14.4226L18.2612 15.4864C17.5302 16.6944 15.9012 17.1128 14.6342 16.4088C14.4652 16.3155 14.2702 16.2645 14.0762 16.2597H14.0702C13.7812 16.2597 13.4842 16.378 13.2682 16.5848C13.0492 16.7954 12.9292 17.0763 12.9312 17.3744C12.9242 18.7873 11.7292 19.93 10.2672 19.93Z" fill="black"/>
</g>
<path fill-rule="evenodd" clip-rule="evenodd" d="M9.64516 8.15052C8.60516 8.15052 7.75916 8.96518 7.75916 9.96548C7.75916 10.9658 8.60516 11.7785 9.64516 11.7785C10.6852 11.7785 11.5312 10.9658 11.5312 9.96548C11.5312 8.96518 10.6852 8.15052 9.64516 8.15052ZM9.64515 13.2212C7.77816 13.2212 6.25916 11.7612 6.25916 9.96547C6.25916 8.16974 7.77816 6.70776 9.64515 6.70776C11.5122 6.70776 13.0312 8.16974 13.0312 9.96547C13.0312 11.7612 11.5122 13.2212 9.64515 13.2212Z" fill="black"/>
</svg>
