<svg width="17" height="14" viewBox="0 0 17 14" fill="none" xmlns="http://www.w3.org/2000/svg">
<path fill-rule="evenodd" clip-rule="evenodd" d="M16.1019 7.74325C16.468 7.69358 16.7501 7.37979 16.7501 7.00009C16.7501 6.58588 16.4143 6.25009 16.0001 6.25009L2.81686 6.25009L7.57916 1.50692L7.65195 1.42295C7.87041 1.12979 7.84707 0.713081 7.58135 0.446263C7.28907 0.152764 6.81419 0.151781 6.5207 0.444067L0.481573 6.45823C0.443968 6.49423 0.410103 6.53411 0.380621 6.57721C0.180239 6.86968 0.210281 7.27263 0.470739 7.53197L6.52074 13.556L6.60501 13.6284C6.89909 13.8456 7.31571 13.8205 7.5814 13.5537C7.87366 13.2602 7.87264 12.7853 7.57911 12.493L2.81567 7.75009L16.0001 7.75009L16.1019 7.74325Z" fill="white"/>
</svg>
