<svg width="17" height="14" viewBox="0 0 17 14" fill="none" xmlns="http://www.w3.org/2000/svg">
<path fill-rule="evenodd" clip-rule="evenodd" d="M16.1019 7.74334C16.468 7.69367 16.7501 7.37988 16.7501 7.00018C16.7501 6.58597 16.4143 6.25018 16.0001 6.25018L2.81686 6.25018L7.57916 1.50701L7.65195 1.42305C7.87041 1.12989 7.84707 0.713172 7.58135 0.446355C7.28907 0.152856 6.81419 0.151873 6.5207 0.444159L0.481573 6.45833C0.443968 6.49432 0.410103 6.5342 0.380621 6.57731C0.180239 6.86977 0.210281 7.27272 0.470739 7.53206L6.52074 13.5561L6.60501 13.6285C6.89909 13.8457 7.31571 13.8206 7.5814 13.5538C7.87366 13.2603 7.87264 12.7854 7.57911 12.4931L2.81567 7.75018L16.0001 7.75018L16.1019 7.74334Z" fill="black"/>
</svg>
