<svg width="16" height="12" viewBox="0 0 16 12" fill="none" xmlns="http://www.w3.org/2000/svg">
<path fill-rule="evenodd" clip-rule="evenodd" d="M1.49958 6C1.92707 6.59749 2.8032 7.72332 3.95688 8.70353C5.1531 9.71988 6.55381 10.5 8 10.5C9.44619 10.5 10.8469 9.71988 12.0431 8.70353C13.1968 7.72332 14.0729 6.59749 14.5004 6C14.0729 5.40251 13.1968 4.27668 12.0431 3.29647C10.8469 2.28011 9.44619 1.5 8 1.5C6.55381 1.5 5.1531 2.28012 3.95688 3.29647C2.8032 4.27668 1.92707 5.40251 1.49958 6ZM3.00598 2.14698C4.30974 1.03926 6.04352 0 8 0C9.95648 0 11.6903 1.03926 12.994 2.14698C14.3104 3.26545 15.2844 4.53536 15.7345 5.16975C16.0885 5.66878 16.0885 6.33122 15.7345 6.83025C15.2844 7.46464 14.3104 8.73455 12.994 9.85302C11.6903 10.9607 9.95648 12 8 12C6.04352 12 4.30974 10.9607 3.00598 9.85302C1.68958 8.73455 0.71556 7.46464 0.265512 6.83025C-0.0885036 6.33122 -0.0885042 5.66878 0.265512 5.16975C0.71556 4.53536 1.68958 3.26545 3.00598 2.14698Z" fill="#9CA3AF"/>
<path fill-rule="evenodd" clip-rule="evenodd" d="M8 7.5C8.81744 7.5 9.4801 6.82843 9.4801 6C9.4801 5.17157 8.81744 4.5 8 4.5C7.18257 4.5 6.5199 5.17157 6.5199 6C6.5199 6.82843 7.18257 7.5 8 7.5ZM8 9C9.63487 9 10.9602 7.65685 10.9602 6C10.9602 4.34315 9.63487 3 8 3C6.36513 3 5.03981 4.34315 5.03981 6C5.03981 7.65685 6.36513 9 8 9Z" fill="#9CA3AF"/>
</svg>
